<!DOCTYPE svg PUBLIC "-//W3C//DTD SVG 1.1//EN" "http://www.w3.org/Graphics/SVG/1.1/DTD/svg11.dtd">
<!-- Uploaded to: SVG Repo, www.svgrepo.com, Transformed by: SVG Repo Mixer Tools -->
<svg width="256px" height="256px" viewBox="-102.4 -102.4 1228.80 1228.80" class="icon" version="1.1" xmlns="http://www.w3.org/2000/svg" fill="#000000" stroke="#000000">
<g id="SVGRepo_bgCarrier" stroke-width="0" transform="translate(0,0), scale(1)">
<path transform="translate(-102.4, -102.4), scale(38.4)" d="M16,29.459370109651772C19.947887320986194,29.481642233418977,23.338310217628432,26.898498351356874,25.687920233076035,23.725858579493554C27.924355352219408,20.70603700930227,28.522130935697678,16.982812284631535,27.99544499770256,13.262117956868424C27.391726411286573,8.997237962931802,26.405073351327605,4.303703383844439,22.641927350480792,2.2078957422476275C18.697807606198616,0.011298454345607833,13.827776800041097,1.0866193611601118,9.801952845927737,3.129622467604662C5.891522109517602,5.114066455489284,2.543336820398301,8.439370292944563,1.8349322704409765,12.766915726433654C1.1669584391979337,16.847475490286364,3.772823638502964,20.464605459759476,6.448186540520874,23.617317049503374C8.988841134726798,26.61128514954974,12.073388224467944,29.437218012507174,16,29.459370109651772" fill="#3ccc37" strokewidth="0"/>
</g>
<g id="SVGRepo_tracerCarrier" stroke-linecap="round" stroke-linejoin="round" stroke="#CCCCCC" stroke-width="2.048"/>
<g id="SVGRepo_iconCarrier">
<path d="M519.68 495.36l16.64-12.8c8.96-7.68 21.76-6.4 29.44 2.56l39.68 48.64c7.68 8.96 6.4 21.76-2.56 29.44L345.6 773.12c-8.96 7.68-21.76 6.4-29.44-2.56l-39.68-48.64c-7.68-8.96-6.4-21.76 2.56-29.44l184.32-151.04-46.08-56.32-240.64 197.12c-8.96 7.68-10.24 20.48-2.56 29.44l131.84 160c7.68 8.96 20.48 10.24 29.44 2.56L704 572.16c8.96-7.68 10.24-20.48 2.56-29.44L574.72 382.72c-7.68-8.96-20.48-10.24-29.44-2.56L473.6 439.04l46.08 56.32z" fill="#6d8ce0"/>
<path d="M322.56 892.16h-3.84c-8.96-1.28-16.64-5.12-23.04-11.52L165.12 719.36c-11.52-14.08-10.24-35.84 5.12-47.36l249.6-206.08 62.72 75.52-194.56 161.28c-1.28 1.28-2.56 3.84-2.56 5.12 0 2.56 0 3.84 1.28 6.4l39.68 48.64c1.28 1.28 3.84 2.56 5.12 2.56s3.84 0 6.4-1.28l256-211.2c3.84-2.56 3.84-7.68 1.28-11.52l-39.68-48.64c-1.28-1.28-3.84-2.56-5.12-2.56-2.56 0-3.84 0-6.4 1.28l-25.6 21.76-62.72-75.52 81.92-67.84c6.4-5.12 15.36-7.68 24.32-7.68 8.96 1.28 16.64 5.12 23.04 11.52L716.8 533.76c11.52 14.08 10.24 35.84-5.12 47.36L343.04 884.48c-5.12 5.12-12.8 7.68-20.48 7.68z m93.44-389.12l-230.4 189.44c-3.84 2.56-3.84 7.68-1.28 11.52l131.84 160c1.28 1.28 3.84 2.56 5.12 2.56 2.56 0 3.84 0 6.4-1.28l368.64-303.36c3.84-2.56 3.84-7.68 1.28-11.52L564.48 390.4c-1.28-1.28-3.84-2.56-5.12-2.56-2.56 0-3.84 0-6.4 1.28l-62.72 51.2 29.44 35.84 6.4-5.12c6.4-5.12 15.36-8.96 24.32-7.68 8.96 1.28 16.64 5.12 23.04 11.52L614.4 524.8c11.52 14.08 10.24 35.84-5.12 47.36l-256 211.2c-6.4 5.12-15.36 7.68-24.32 7.68-8.96-1.28-16.64-5.12-23.04-11.52L266.24 729.6c-5.12-6.4-8.96-15.36-7.68-24.32 1.28-8.96 5.12-16.64 11.52-23.04l174.08-143.36-28.16-35.84z" fill="#231C1C"/>
<path d="M654.08 478.72L894.72 281.6c8.96-7.68 10.24-20.48 2.56-29.44L765.44 90.88c-7.68-8.96-20.48-10.24-29.44-2.56L367.36 391.68c-8.96 7.68-10.24 20.48-2.56 29.44l131.84 160c7.68 8.96 20.48 10.24 29.44 2.56l71.68-58.88-46.08-56.32-15.36 12.8c-8.96 7.68-21.76 6.4-29.44-2.56l-39.68-48.64c-7.68-8.96-6.4-21.76 2.56-29.44l256-211.2c8.96-7.68 21.76-6.4 29.44 2.56l39.68 48.64c7.68 8.96 6.4 21.76-2.56 29.44L608 422.4l46.08 56.32z" fill="#6d8ce0"/>
<path d="M512 601.6h-3.84c-8.96-1.28-16.64-5.12-23.04-11.52L354.56 428.8c-5.12-6.4-8.96-15.36-7.68-24.32 1.28-8.96 5.12-16.64 11.52-23.04L728.32 78.08c6.4-5.12 15.36-8.96 24.32-7.68 8.96 1.28 16.64 5.12 23.04 11.52L906.24 243.2c11.52 14.08 10.24 35.84-5.12 47.36L651.52 496.64 588.8 421.12l194.56-160c1.28-1.28 2.56-3.84 2.56-5.12s0-3.84-1.28-6.4l-39.68-48.64c-1.28-1.28-3.84-2.56-5.12-2.56-2.56 0-3.84 0-6.4 1.28l-256 211.2c-3.84 2.56-3.84 7.68-1.28 11.52l39.68 48.64c1.28 1.28 3.84 2.56 5.12 2.56 2.56 0 3.84 0 6.4-1.28l25.6-21.76 62.72 75.52-81.92 67.84c-6.4 5.12-12.8 7.68-21.76 7.68zM748.8 96c-1.28 0-3.84 0-5.12 1.28L376.32 401.92c-1.28 1.28-2.56 3.84-2.56 5.12s0 3.84 1.28 6.4l131.84 160c1.28 1.28 3.84 2.56 5.12 2.56 2.56 0 3.84 0 6.4-1.28l62.72-51.2L550.4 486.4l-6.4 5.12c-6.4 5.12-15.36 8.96-24.32 7.68-8.96-1.28-16.64-5.12-23.04-11.52l-39.68-48.64c-11.52-14.08-10.24-35.84 5.12-47.36l256-211.2c6.4-5.12 15.36-8.96 24.32-7.68 8.96 1.28 16.64 5.12 23.04 11.52l39.68 48.64c5.12 6.4 8.96 15.36 7.68 24.32-1.28 8.96-5.12 16.64-11.52 23.04L625.92 423.68l29.44 35.84 230.4-189.44c3.84-2.56 3.84-7.68 1.28-11.52L755.2 99.84c-1.28-2.56-3.84-2.56-6.4-3.84 1.28 0 0 0 0 0z" fill="#231C1C"/>
</g>
</svg>