<?xml version="1.0" encoding="iso-8859-1"?>
<!-- Uploaded to: SVG Repo, www.svgrepo.com, Generator: SVG Repo Mixer Tools -->
<svg height="800px" width="800px" version="1.1" id="Layer_1" xmlns="http://www.w3.org/2000/svg" xmlns:xlink="http://www.w3.org/1999/xlink" 
	 viewBox="0 0 296.999 296.999" xml:space="preserve">
<g>
	<g id="XMLID_34_">
		<g>
			<path style="fill:#D5C295;" d="M164.848,233.099c6.51,0,11.8,5.29,11.8,11.8c0,6.5-5.29,11.79-11.8,11.79
				c-6.5,0-11.79-5.29-11.79-11.79C153.058,238.389,158.348,233.099,164.848,233.099z"/>
			<path style="fill:#D5C295;" d="M97.148,233.099c6.51,0,11.8,5.29,11.8,11.8c0,6.5-5.29,11.79-11.8,11.79
				c-6.5,0-11.79-5.29-11.79-11.79C85.358,238.389,90.648,233.099,97.148,233.099z"/>
			<path style="fill:#FFCD02;" d="M63.298,182.329c6.51,0,11.8,5.29,11.8,11.79c0,6.51-5.29,11.8-11.8,11.8
				c-6.5,0-11.79-5.29-11.79-11.8C51.508,187.619,56.798,182.329,63.298,182.329z"/>
			<path style="fill:#FFA800;" d="M80.228,114.629c6.5,0,11.79,5.29,11.79,11.79c0,6.51-5.29,11.8-11.79,11.8
				c-6.51,0-11.8-5.29-11.8-11.8C68.428,119.919,73.718,114.629,80.228,114.629z"/>
			<path style="fill:#E67E22;" d="M130.998,63.849c6.51,0,11.8,5.29,11.8,11.8c0,6.5-5.29,11.79-11.8,11.79
				c-6.5,0-11.79-5.29-11.79-11.79C119.208,69.139,124.498,63.849,130.998,63.849z"/>
			<path style="fill:#D35400;" d="M215.628,46.929c6.5,0,11.79,5.29,11.79,11.79c0,6.51-5.29,11.8-11.79,11.8
				c-6.51,0-11.8-5.29-11.8-11.8C203.828,52.219,209.118,46.929,215.628,46.929z"/>
			<path style="fill:#BDC3C7;" d="M269.068,34.779c5.15,6.94,9.41,21.11,7.16,33.71c-1.55,8.66-5.8,15.32-12.64,19.79
				c-25.58,16.74-43.92,32.97-54.51,48.24c-11.84,17.07-11.69,29.83-9.47,37.52c4.71,16.38,21.58,23.99,36.21,24.27
				c11.85,0.23,19.11,3.83,21.57,10.72c3.51,9.81-3.04,24.97-11.24,31.97c-64.82,55.28-149.27,61.4-196.46,14.22
				c-47.45-47.46-36.75-135.39,23.87-196.01c36.42-36.42,87.74-48.93,125.22-48.93c3.97,0,7.79,0.14,11.41,0.41
				C237.758,12.719,259.218,21.499,269.068,34.779z M237.678,58.719c0-12.16-9.89-22.05-22.05-22.05s-22.06,9.89-22.06,22.05
				s9.9,22.06,22.06,22.06S237.678,70.879,237.678,58.719z M165.478,178.649c15.59-7.07,23.8-21.42,18.7-32.69
				c-2.55-5.65-8.22-9.58-15.55-10.78c-6.67-1.1-14.25,0.07-21.34,3.28c-15.59,7.06-23.8,21.42-18.7,32.68v0.01
				c2.56,5.64,8.23,9.57,15.55,10.78c1.64,0.27,3.33,0.4,5.05,0.4C154.498,182.329,160.128,181.069,165.478,178.649z
				 M186.908,244.899c0-12.16-9.9-22.06-22.06-22.06s-22.05,9.9-22.05,22.06c0,12.16,9.89,22.05,22.05,22.05
				S186.908,257.059,186.908,244.899z M153.058,75.649c0-12.16-9.9-22.06-22.06-22.06s-22.05,9.9-22.05,22.06
				s9.89,22.05,22.05,22.05S153.058,87.809,153.058,75.649z M119.208,244.899c0-12.16-9.9-22.06-22.06-22.06s-22.05,9.9-22.05,22.06
				c0,12.16,9.89,22.05,22.05,22.05S119.208,257.059,119.208,244.899z M102.278,126.419c0-12.16-9.89-22.05-22.05-22.05
				s-22.06,9.89-22.06,22.05s9.9,22.06,22.06,22.06S102.278,138.579,102.278,126.419z M85.358,194.119
				c0-12.16-9.9-22.05-22.06-22.05s-22.05,9.89-22.05,22.05s9.89,22.06,22.05,22.06S85.358,206.279,85.358,194.119z"/>
			<path d="M277.308,28.669c6.38,8.6,11.93,25.3,9.01,41.63c-2.03,11.38-7.95,20.57-17.11,26.57
				c-61.63,40.31-62.31,65.41-59.75,74.33c3.25,11.3,16.05,16.66,26.56,16.86c20.61,0.39,28.25,9.74,31.03,17.52
				c5.1,14.24-3.25,33.84-14.24,43.22c-32.81,27.98-72.13,44.95-110.73,47.78c-3.81,0.28-7.59,0.42-11.33,0.42
				c-34.8,0-65.83-12.06-88.31-34.53c-51.46-51.46-40.75-145.89,23.87-210.51c18.52-18.52,42.71-33.03,69.94-41.95
				c24.19-7.93,50.72-11.32,74.69-9.55C241.488,2.709,265.678,12.989,277.308,28.669z M276.228,68.489
				c2.25-12.6-2.01-26.77-7.16-33.71c-9.85-13.28-31.31-22.06-58.88-24.09c-3.62-0.27-7.44-0.41-11.41-0.41
				c-37.48,0-88.8,12.51-125.22,48.93c-60.62,60.62-71.32,148.55-23.87,196.01c47.19,47.18,131.64,41.06,196.46-14.22
				c8.2-7,14.75-22.16,11.24-31.97c-2.46-6.89-9.72-10.49-21.57-10.72c-14.63-0.28-31.5-7.89-36.21-24.27
				c-2.22-7.69-2.37-20.45,9.47-37.52c10.59-15.27,28.93-31.5,54.51-48.24C270.428,83.809,274.678,77.149,276.228,68.489z"/>
			<path d="M215.628,36.669c12.16,0,22.05,9.89,22.05,22.05s-9.89,22.06-22.05,22.06s-22.06-9.9-22.06-22.06
				S203.468,36.669,215.628,36.669z M227.418,58.719c0-6.5-5.29-11.79-11.79-11.79c-6.51,0-11.8,5.29-11.8,11.79
				c0,6.51,5.29,11.8,11.8,11.8C222.128,70.519,227.418,65.229,227.418,58.719z"/>
			<path d="M184.178,145.959c5.1,11.27-3.11,25.62-18.7,32.69c-5.35,2.42-10.98,3.68-16.29,3.68c-1.72,0-3.41-0.13-5.05-0.4
				c-7.32-1.21-12.99-5.14-15.55-10.78v-0.01c-5.1-11.26,3.11-25.62,18.7-32.68c7.09-3.21,14.67-4.38,21.34-3.28
				C175.958,136.379,181.628,140.309,184.178,145.959z M161.248,169.299c9.83-4.45,16.18-13.38,13.59-19.11
				c-1.53-3.38-5.59-4.52-7.87-4.89c-4.63-0.76-10.26,0.15-15.45,2.5c-9.82,4.46-16.17,13.38-13.59,19.11
				c1.54,3.39,5.59,4.52,7.87,4.89C150.428,172.559,156.058,171.649,161.248,169.299z"/>
			<path d="M164.848,222.839c12.16,0,22.06,9.9,22.06,22.06c0,12.16-9.9,22.05-22.06,22.05s-22.05-9.89-22.05-22.05
				C142.798,232.739,152.688,222.839,164.848,222.839z M176.648,244.899c0-6.51-5.29-11.8-11.8-11.8c-6.5,0-11.79,5.29-11.79,11.8
				c0,6.5,5.29,11.79,11.79,11.79C171.358,256.689,176.648,251.399,176.648,244.899z"/>
			<path d="M130.998,53.589c12.16,0,22.06,9.9,22.06,22.06s-9.9,22.05-22.06,22.05s-22.05-9.89-22.05-22.05
				S118.838,53.589,130.998,53.589z M142.798,75.649c0-6.51-5.29-11.8-11.8-11.8c-6.5,0-11.79,5.29-11.79,11.8
				c0,6.5,5.29,11.79,11.79,11.79C137.508,87.439,142.798,82.149,142.798,75.649z"/>
			<path d="M97.148,222.839c12.16,0,22.06,9.9,22.06,22.06c0,12.16-9.9,22.05-22.06,22.05s-22.05-9.89-22.05-22.05
				C75.098,232.739,84.988,222.839,97.148,222.839z M108.948,244.899c0-6.51-5.29-11.8-11.8-11.8c-6.5,0-11.79,5.29-11.79,11.8
				c0,6.5,5.29,11.79,11.79,11.79C103.658,256.689,108.948,251.399,108.948,244.899z"/>
			<path d="M80.228,104.369c12.16,0,22.05,9.89,22.05,22.05s-9.89,22.06-22.05,22.06s-22.06-9.9-22.06-22.06
				S68.068,104.369,80.228,104.369z M92.018,126.419c0-6.5-5.29-11.79-11.79-11.79c-6.51,0-11.8,5.29-11.8,11.79
				c0,6.51,5.29,11.8,11.8,11.8C86.728,138.219,92.018,132.929,92.018,126.419z"/>
			<path d="M63.298,172.069c12.16,0,22.06,9.89,22.06,22.05s-9.9,22.06-22.06,22.06s-22.05-9.9-22.05-22.06
				C41.248,181.959,51.138,172.069,63.298,172.069z M75.098,194.119c0-6.5-5.29-11.79-11.8-11.79c-6.5,0-11.79,5.29-11.79,11.79
				c0,6.51,5.29,11.8,11.79,11.8C69.808,205.919,75.098,200.629,75.098,194.119z"/>
		</g>
	</g>
</g>
</svg>