<?xml version="1.0" encoding="utf-8"?>
<!-- Generator: Adobe Illustrator 19.2.1, SVG Export Plug-In . SVG Version: 6.00 Build 0)  -->
<svg version="1.1" id="layer" xmlns="http://www.w3.org/2000/svg" xmlns:xlink="http://www.w3.org/1999/xlink" x="0px" y="0px"
	 viewBox="0 0 652 652" style="enable-background:new 0 0 652 652;" xml:space="preserve">
<style type="text/css">
	.st0{opacity:0.45;}
	.st1{fill:#010101;}
	.st2{opacity:0.6;}
	.st3{opacity:0.8;}
	.st4{fill:#020202;}
</style>
<g>
	<g class="st0">
		<g>
			<polygon class="st1" points="377.2,71.9 320.3,173.1 206.4,173.1 263.3,71.9 			"/>
		</g>
	</g>
	<g class="st2">
		<g>
			<polygon class="st1" points="320.3,173.1 434.1,173.1 377.2,71.9 263.3,71.9 			"/>
		</g>
	</g>
	<g class="st3">
		<g>
			<polygon class="st1" points="263.3,274.3 320.3,173.1 263.3,71.9 206.4,173.1 			"/>
		</g>
	</g>
	<g class="st0">
		<g>
			<polygon class="st1" points="263.9,426.1 320.8,324.9 434.7,324.9 377.7,426.1 			"/>
		</g>
	</g>
	<g class="st2">
		<g>
			<polygon class="st1" points="320.8,324.9 207,324.9 263.9,426.1 377.7,426.1 			"/>
		</g>
	</g>
	<g class="st3">
		<g>
			<polygon class="st1" points="377.7,223.7 320.8,324.9 377.7,426.1 434.7,324.9 			"/>
		</g>
	</g>
	<path class="st4" d="M195.5,522.9c0,1.6,0.7,2.8,2,3.6c1.3,0.8,2.9,1.5,4.9,2c1.9,0.5,4,1,6.3,1.4c2.3,0.4,4.4,1,6.3,1.7
		c1.9,0.8,3.5,1.8,4.9,3.2c1.3,1.3,2,3.2,2,5.5c0,2-0.5,3.7-1.4,5.1c-0.9,1.4-2.1,2.6-3.5,3.5c-1.4,0.9-3,1.6-4.7,2.1
		c-1.7,0.5-3.5,0.7-5.1,0.7c-1.8,0-3.6-0.2-5.4-0.6c-1.8-0.4-3.4-1-4.8-1.9c-1.4-0.9-2.6-2-3.5-3.4c-0.9-1.4-1.4-3.2-1.4-5.3
		c0-0.7,0.1-1.3,0.3-1.8c0.2-0.5,0.7-0.7,1.6-0.7c0.4,0,0.7,0.2,0.9,0.6c0.2,0.4,0.3,0.8,0.3,1.1c0,1.8,0.3,3.3,1,4.5
		c0.7,1.2,1.5,2.1,2.7,2.7c1.1,0.7,2.4,1.1,3.9,1.4c1.5,0.3,2.9,0.4,4.5,0.4c1.2,0,2.5-0.2,3.9-0.5c1.4-0.3,2.6-0.8,3.8-1.5
		c1.1-0.7,2.1-1.5,2.8-2.6c0.8-1.1,1.1-2.3,1.1-3.8c0-1.8-0.7-3.2-2-4.2c-1.3-1-2.9-1.8-4.9-2.3c-1.9-0.6-4-1.1-6.3-1.4
		c-2.3-0.4-4.4-0.9-6.3-1.6c-1.9-0.7-3.5-1.6-4.9-2.8c-1.3-1.2-2-2.8-2-4.9c0-1.8,0.5-3.3,1.4-4.5c0.9-1.2,2.1-2.1,3.4-2.8
		c1.4-0.7,2.9-1.2,4.5-1.4c1.6-0.3,3.2-0.4,4.6-0.4c1.7,0,3.5,0.2,5.2,0.5c1.7,0.4,3.3,0.9,4.6,1.7c1.4,0.8,2.5,1.9,3.4,3.3
		s1.3,3.1,1.3,5.1c0,0.4-0.2,0.8-0.5,1c-0.4,0.3-0.7,0.4-1.1,0.4c-0.5,0-0.9-0.2-1.1-0.5c-0.2-0.4-0.3-0.7-0.3-1.1
		c-0.3-1.6-0.8-2.9-1.6-3.9c-0.8-1-1.7-1.7-2.7-2.2c-1.1-0.5-2.2-0.9-3.4-1c-1.2-0.2-2.5-0.3-3.7-0.3c-1,0-2.1,0.1-3.4,0.2
		c-1.2,0.1-2.4,0.4-3.5,0.9c-1.1,0.4-2.1,1-2.8,1.8C195.9,520.6,195.5,521.6,195.5,522.9"/>
	<path class="st4" d="M253,513.4c2.5,0,4.9,0.5,7.1,1.6c2.2,1.1,4.1,2.5,5.6,4.2c1.6,1.7,2.8,3.8,3.7,6.1c0.9,2.3,1.3,4.7,1.3,7.1
		c0,2.5-0.4,4.9-1.3,7.1c-0.9,2.3-2.1,4.3-3.7,6.1c-1.6,1.7-3.4,3.1-5.6,4.2c-2.2,1.1-4.5,1.6-7.1,1.6c-2.5,0-4.9-0.5-7-1.6
		c-2.1-1.1-4-2.5-5.6-4.2c-1.6-1.7-2.8-3.8-3.7-6.1c-0.9-2.3-1.3-4.7-1.3-7.1c0-2.5,0.4-4.9,1.3-7.1c0.9-2.3,2.1-4.3,3.7-6.1
		c1.6-1.7,3.4-3.1,5.6-4.2C248.1,514,250.5,513.4,253,513.4 M253,548.4c2.2,0,4.2-0.5,5.9-1.4c1.8-0.9,3.3-2.1,4.6-3.5
		c1.3-1.5,2.3-3.1,2.9-5.1c0.7-1.9,1-3.9,1-5.9c0-2-0.3-4-1-5.9c-0.7-1.9-1.7-3.6-2.9-5c-1.3-1.5-2.8-2.6-4.6-3.5
		c-1.8-0.9-3.8-1.4-5.9-1.4c-2.1,0-4.1,0.5-5.8,1.4c-1.8,0.9-3.3,2.1-4.6,3.5c-1.3,1.5-2.3,3.1-3,5c-0.7,1.9-1.1,3.9-1.1,5.9
		c0,2,0.4,4,1.1,5.9c0.7,1.9,1.7,3.6,3,5.1c1.3,1.5,2.8,2.6,4.6,3.5C249,547.9,250.9,548.4,253,548.4"/>
	<path class="st4" d="M286.7,483.9c0.4,0,0.8,0.2,1.1,0.5c0.3,0.3,0.4,0.7,0.4,1v63.9c0,0.4-0.1,0.7-0.4,1c-0.3,0.3-0.7,0.5-1.1,0.5
		s-0.8-0.2-1.1-0.5c-0.3-0.3-0.4-0.7-0.4-1v-63.9c0-0.4,0.1-0.7,0.4-1C285.9,484,286.2,483.9,286.7,483.9"/>
	<path class="st4" d="M306.2,503.8c0,0.7-0.3,1.2-0.8,1.7c-0.5,0.5-1.1,0.7-1.7,0.7c-0.7,0-1.3-0.2-1.8-0.7c-0.5-0.5-0.7-1-0.7-1.7
		c0-0.7,0.2-1.3,0.7-1.8c0.5-0.5,1.1-0.7,1.8-0.7c0.7,0,1.2,0.2,1.7,0.7C305.9,502.5,306.2,503.1,306.2,503.8 M303.6,514.5
		c0.4,0,0.7,0.2,1,0.5c0.3,0.3,0.5,0.7,0.5,1v33.2c0,0.4-0.2,0.7-0.5,1c-0.3,0.3-0.7,0.5-1,0.5c-0.4,0-0.8-0.2-1.1-0.5
		c-0.3-0.3-0.4-0.7-0.4-1v-33.2c0-0.4,0.1-0.7,0.4-1C302.8,514.7,303.2,514.5,303.6,514.5"/>
	<path class="st4" d="M353.4,483.8c0.4,0,0.8,0.2,1.1,0.5c0.3,0.3,0.4,0.7,0.4,1v63.8c0,1-0.5,1.5-1.5,1.5c-1,0-1.5-0.5-1.5-1.5v-7
		c-1.5,2.8-3.6,5.1-6.3,6.9c-2.7,1.7-5.7,2.6-8.9,2.6c-2.5,0-4.9-0.5-7-1.6c-2.1-1.1-4-2.5-5.6-4.2c-1.6-1.7-2.8-3.8-3.7-6.1
		c-0.9-2.3-1.3-4.7-1.3-7.1c0-2.5,0.4-4.9,1.3-7.1c0.9-2.3,2.1-4.3,3.7-6.1c1.6-1.7,3.4-3.1,5.6-4.2c2.1-1.1,4.5-1.6,7-1.6
		c3.3,0,6.3,0.9,8.9,2.7c2.7,1.8,4.8,4.1,6.3,6.9v-38c0-0.4,0.1-0.7,0.4-1C352.6,483.9,353,483.8,353.4,483.8 M336.6,548.6
		c2.2,0,4.2-0.5,5.9-1.4c1.8-0.9,3.3-2.1,4.6-3.5c1.3-1.5,2.3-3.1,2.9-5.1c0.7-1.9,1-3.9,1-5.9c0-2-0.3-4-1-5.9
		c-0.7-1.9-1.7-3.6-2.9-5.1c-1.3-1.5-2.8-2.6-4.6-3.5c-1.8-0.9-3.8-1.4-5.9-1.4c-2.1,0-4.1,0.5-5.8,1.4c-1.8,0.9-3.3,2.1-4.6,3.5
		c-1.3,1.5-2.3,3.1-3,5.1c-0.7,1.9-1.1,3.9-1.1,5.9c0,2,0.4,4,1.1,5.9c0.7,1.9,1.7,3.6,3,5.1c1.3,1.5,2.8,2.6,4.6,3.5
		C332.5,548.1,334.5,548.6,336.6,548.6"/>
	<path class="st4" d="M373.4,503.8c0,0.7-0.3,1.2-0.8,1.7c-0.5,0.5-1.1,0.7-1.7,0.7c-0.7,0-1.3-0.2-1.8-0.7c-0.5-0.5-0.7-1-0.7-1.7
		c0-0.7,0.2-1.3,0.7-1.8c0.5-0.5,1.1-0.7,1.8-0.7c0.7,0,1.2,0.2,1.7,0.7C373.2,502.5,373.4,503.1,373.4,503.8 M370.9,514.5
		c0.4,0,0.7,0.2,1,0.5c0.3,0.3,0.5,0.7,0.5,1v33.2c0,0.4-0.2,0.7-0.5,1c-0.3,0.3-0.7,0.5-1,0.5c-0.4,0-0.8-0.2-1.1-0.5
		c-0.3-0.3-0.4-0.7-0.4-1v-33.2c0-0.4,0.1-0.7,0.4-1C370.1,514.7,370.5,514.5,370.9,514.5"/>
	<path class="st4" d="M405.4,514.3c0.4,0,0.8,0.2,1.1,0.5c0.3,0.3,0.4,0.7,0.4,1c0,1-0.5,1.5-1.5,1.5h-8.2v32.1c0,0.4-0.1,0.7-0.4,1
		c-0.3,0.3-0.7,0.5-1.1,0.5c-0.4,0-0.8-0.2-1.1-0.5c-0.3-0.3-0.4-0.7-0.4-1v-32.1h-7.9c-1,0-1.5-0.5-1.5-1.5c0-0.4,0.1-0.7,0.4-1
		c0.3-0.3,0.7-0.5,1.1-0.5h7.9v-11.8c0-1,0.5-1.5,1.5-1.5c1,0,1.5,0.5,1.5,1.5v11.8H405.4z"/>
	<path class="st4" d="M447.7,514.2c1,0,1.5,0.5,1.5,1.5c0,0.1-0.3,0.9-0.9,2.4c-0.6,1.5-1.3,3.5-2.2,5.9c-0.9,2.4-2,5.2-3.2,8.3
		c-1.2,3.1-2.5,6.3-3.8,9.7c-1.3,3.3-2.6,6.6-3.8,9.8c-1.2,3.2-2.4,6.1-3.4,8.8c-1.1,2.7-1.9,4.9-2.7,6.8c-0.7,1.9-1.2,3-1.4,3.5
		c-0.4,0.7-0.8,1-1.4,1c-0.4,0-0.7-0.2-1-0.5c-0.3-0.3-0.5-0.7-0.5-1c0-0.1,0.2-0.7,0.5-1.7c0.4-1,0.8-2.2,1.3-3.5
		c0.5-1.4,1.1-2.9,1.7-4.5c0.7-1.6,1.3-3.2,1.9-4.7c0.6-1.5,1.1-2.8,1.5-3.9c0.4-1.1,0.7-1.8,0.9-2.2c-0.1-0.1-0.5-0.9-1.2-2.6
		c-0.7-1.7-1.6-3.8-2.7-6.3c-1.1-2.5-2.2-5.2-3.3-8.1c-1.2-2.9-2.3-5.6-3.3-8.1c-1-2.5-1.9-4.6-2.6-6.3c-0.7-1.7-1-2.6-1-2.7
		c0-1,0.5-1.5,1.5-1.5c0.7,0,1.2,0.3,1.4,0.9l12.7,30.9l12-30.8C446.5,514.5,447,514.2,447.7,514.2"/>
</g>
</svg>
