<?xml version="1.0" encoding="utf-8"?>
<!-- Generator: Adobe Illustrator 25.4.1, SVG Export Plug-In . SVG Version: 6.00 Build 0)  -->
<svg version="1.0" id="katman_1" xmlns="http://www.w3.org/2000/svg" xmlns:xlink="http://www.w3.org/1999/xlink" x="0px" y="0px"
	 viewBox="0 0 1700 1200" style="enable-background:new 0 0 1700 1200;" xml:space="preserve">
<style type="text/css">
	.st0{fill:#5E464D;}
	.st1{fill:#FFFFFF;}
	.st2{fill:#3FE0C5;}
</style>
<g id="Layer_8">
	<polygon id="Fill-12" class="st0" points="433,917 498.9,917 498.9,939.3 477.2,939.3 477.2,1036.1 454.2,1036.1 454.2,939.3 
		433,939.3 	"/>
	<path id="Fill-14" class="st0" d="M578.5,963.6H592c7.2,0,12.2-0.9,14.9-2.8c2.9-2.2,4.4-5.8,4.1-9.4c0.1-2.5-0.6-4.9-2-6.9
		c-1.3-1.9-3.2-3.4-5.4-4.2c-4.1-1.1-8.3-1.5-12.6-1.3h-12.6L578.5,963.6z M555.9,917h30.4c13.2,0,22.5,1.2,28.1,3.5
		c5.6,2.4,10.3,6.5,13.4,11.7c3.5,5.8,5.3,12.5,5.1,19.3c0.3,7-1.7,13.9-5.7,19.6c-4.3,5.7-10.2,9.8-16.9,12l28.3,52.9h-24.9
		L587,985.7h-8.5v50.4h-22.7V917z"/>
	<g>
		<path id="Fill-16" class="st0" d="M696.3,917H719v77.1c-0.3,4.8,0.3,9.5,1.8,14.1c1.1,2.8,3.2,5.1,5.8,6.6
			c2.9,1.7,6.3,2.6,9.7,2.5c3.6,0.1,7.2-0.8,10.3-2.7c2.7-1.6,4.8-4.1,6-7c1.4-5.3,2-10.8,1.7-16.2V917h22.8v71
			c0.3,8.4-0.3,16.7-2,25c-1.5,5-4.2,9.6-7.7,13.4c-3.6,4.1-8.1,7.3-13.2,9.4c-5.5,2.2-11.4,3.3-17.3,3.1c-7.9,0.2-15.8-1.9-22.6-6
			c-6-3.5-10.7-8.7-13.7-14.9c-2.7-6-4.1-16.1-4.1-30.3L696.3,917z"/>
	</g>
	<polygon id="Fill-19" class="st0" points="845.6,917 904.7,917 904.7,939.1 868.1,939.1 868.1,960.7 904.7,960.7 904.7,982.5 
		868.1,982.5 868.1,1036.1 845.6,1036.1 	"/>
	<polygon id="Fill-21" class="st0" points="967.4,917 1026.6,917 1026.6,939.1 990,939.1 990,960.7 1026.6,960.7 1026.6,982.5 
		990,982.5 990,1036.1 967.4,1036.1 	"/>
	<polygon id="Fill-23" class="st0" points="1089.2,917 1111.8,917 1111.8,1014.5 1144.9,1014.5 1144.9,1036.1 1089.2,1036.1 	"/>
	<polygon id="Fill-25" class="st0" points="1202,917 1267,917 1267,939.2 1224.5,939.2 1224.5,960.7 1267,960.7 1267,982.5 
		1224.5,982.5 1224.5,1013.9 1267,1013.9 1267,1036.1 1202,1036.1 	"/>
	<ellipse class="st0" cx="849.5" cy="482.9" rx="317.3" ry="321"/>
	<path id="Fill-6" class="st1" d="M749.7,767.5c13,4.4,56.6,18.6,58.4,4.7c1-7.6-22-15.4-53.1-31.9c-44.3-23.4-84.8-53.3-120.2-88.8
		c-51.7-50.6-81.4-119.5-82.7-191.9c-2.6-97.1,35.3-175.6,97.8-226.3C573.5,292.4,527.8,382.6,525.4,479
		c-1.9,70.2,17.8,129.4,54.7,183.3c11.5,14.8,24.8,28,39.8,39.2C655.2,728.2,706.9,753,749.7,767.5"/>
	<path id="Fill-8" class="st1" d="M1171.1,409.3c-19.7-92.5-80.8-157.3-162.6-203c62.4,44.5,150.6,139.2,98.7,222.7
		c-44,66.9-151,53.8-209.4,22c-69.5-37.7-156.6-122.6-70.7-205.5c55.6-53.7,232.5,6.5,201.4,86.7c-18.2,46.7-88.9,36.3-120.7,13.5
		c-23.4-16.8-43.2-45.8-32.7-75.7c3.4-9.6,2.9-24.4-10.7-13.5c-10.1,8.2-15.2,21.6-16.9,34.1c-14.8,104.6,171.6,185.7,226.8,84.5
		c28.7-52.5-17.8-128.8-76.3-160.1c-44-23.6-89.8-40.1-145.9-36.1c-89.7,6.3-165.1,62.5-174.5,154.2
		c-9.4,91.1,51.5,173.1,123.2,222.2c75.4,51.5,176.8,85.5,269.6,54.8C1153.5,582.7,1187.8,487.2,1171.1,409.3"/>
	<path id="Fill-10" class="st2" d="M1054.1,338.5c8.9-60-45.3-101.1-95.3-119.8c-59-22-137-12.4-180,36.5
		c-31.4,35.9-29.4,88-13.2,130.2C790.1,449,845.5,495,909.9,514.9c45.8,14.1,101.1,20.3,147.5,5.4c67.7-21.8,89.7-92.3,75.7-157
		c-3-14-7.6-27.6-13.7-40.5c-8.5-17.9-34.6-54.3,1.4-10c3.8,4.9,7.3,10.1,10.4,15.4c7.4,12.2,13.3,25.3,17.6,39
		c19.7,60.3,4.2,130.7-50.3,167.1c-41.8,27.9-95,31.2-143.5,24.2c-65-9.4-126.4-40.9-169-91.4c-38.9-46.1-65.5-112.3-49.5-172.8
		c11.7-44.3,47.7-77.3,90.7-91.1c54.5-17.6,114.4-9.4,163.4,19.2c24.6,14.3,47.1,34.1,59.5,60.1c5.7,11.7,8.7,24.5,9,37.5
		c0.1,5.3-0.3,10.5-1.2,15.7C1057.6,337.6,1053.6,342.9,1054.1,338.5"/>
</g>
</svg>
